<svg xmlns="http://www.w3.org/2000/svg" width="512" height="512" viewBox="0 0 512 512">
  <rect width="512" height="512" fill="#000000" rx="85"/>
  <path d="M256 85 C 161.73 85 85 161.73 85 256 C 85 350.27 161.73 427 256 427 C 350.27 427 427 350.27 427 256 C 427 161.73 350.27 85 256 85 Z M 256 138 A 118 118 0 0 1 374 256 A 118 118 0 0 1 256 374 A 118 118 0 0 1 138 256 A 118 118 0 0 1 256 138 Z M 256 192 A 64 64 0 0 0 192 256 A 64 64 0 0 0 256 320 A 64 64 0 0 0 320 256 A 64 64 0 0 0 256 192 Z" fill="#22c55e"/>
</svg>
